HIERARCHY
ROOT RootJoint
{
    OFFSET   0.000000   0.000000   0.000000
    CHANNELS 6 Xposition Yposition Zposition Xrotation Yrotation Zrotation
    JOINT pelvis_lowerback
    {
        OFFSET   0.000000   0.093605   0.000000
        CHANNELS 3 Xrotation Yrotation Zrotation
        JOINT lowerback_torso
        {
            OFFSET   0.000000   0.100000   0.000000
            CHANNELS 3 Xrotation Yrotation Zrotation
            JOINT torso_head
            {
                OFFSET   0.000000   0.282350   0.000000
                CHANNELS 3 Xrotation Yrotation Zrotation
                End Site
                {
                    OFFSET   0.000000   0.192650   0.000000
                }
            }
            JOINT rTorso_Clavicle
            {
                OFFSET  -0.001000   0.157500   0.000000
                CHANNELS 3 Xrotation Yrotation Zrotation
                JOINT rShoulder
                {
                    OFFSET  -0.117647   0.000000   0.000000
                    CHANNELS 3 Xrotation Yrotation Zrotation
                    JOINT rElbow
                    {
                        OFFSET  -0.245000   0.000000   0.000000
                        CHANNELS 3 Xrotation Yrotation Zrotation
                        JOINT rWrist
                        {
                            OFFSET  -0.240000   0.000000   0.000000
                            CHANNELS 3 Xrotation Yrotation Zrotation
                            End Site
                            {
                                OFFSET  -0.116353  -0.002500   0.000000
                            }
                        }
                    }
                }
            }
            JOINT lTorso_Clavicle
            {
                OFFSET   0.001000   0.157500   0.000000
                CHANNELS 3 Xrotation Yrotation Zrotation
                JOINT lShoulder
                {
                    OFFSET   0.117647   0.000000   0.000000
                    CHANNELS 3 Xrotation Yrotation Zrotation
                    JOINT lElbow
                    {
                        OFFSET   0.245000   0.000000   0.000000
                        CHANNELS 3 Xrotation Yrotation Zrotation
                        JOINT lWrist
                        {
                            OFFSET   0.240000   0.000000   0.000000
                            CHANNELS 3 Xrotation Yrotation Zrotation
                            End Site
                            {
                                OFFSET   0.116353  -0.002500   0.000000
                            }
                        }
                    }
                }
            }
        }
    }
    JOINT rHip
    {
        OFFSET  -0.100000  -0.051395   0.000000
        CHANNELS 3 Xrotation Yrotation Zrotation
        JOINT rKnee
        {
            OFFSET   0.000000  -0.410000   0.000000
            CHANNELS 3 Xrotation Yrotation Zrotation
            JOINT rAnkle
            {
                OFFSET   0.000000  -0.390000   0.000000
                CHANNELS 3 Xrotation Yrotation Zrotation
                JOINT rToeJoint
                {
                    OFFSET   0.000000  -0.050000   0.130000
                    CHANNELS 3 Xrotation Yrotation Zrotation
                    End Site
                    {
                        OFFSET  -0.010000   0.002000   0.060000
                    }
                }
            }
        }
    }
    JOINT lHip
    {
        OFFSET   0.100000  -0.051395   0.000000
        CHANNELS 3 Xrotation Yrotation Zrotation
        JOINT lKnee
        {
            OFFSET   0.000000  -0.410000   0.000000
            CHANNELS 3 Xrotation Yrotation Zrotation
            JOINT lAnkle
            {
                OFFSET   0.000000  -0.390000   0.000000
                CHANNELS 3 Xrotation Yrotation Zrotation
                JOINT lToeJoint
                {
                    OFFSET   0.000000  -0.050000   0.130000
                    CHANNELS 3 Xrotation Yrotation Zrotation
                    End Site
                    {
                        OFFSET   0.010000   0.002000   0.060000
                    }
                }
            }
        }
    }
}
MOTION
Frames: 12
Frame Time:   0.008333
 -2.328909   0.902510   3.822928 -16.459262 -42.106226 -11.234436  29.654815   6.481230  -3.442702   5.020549   4.132729  -2.438215  -0.093941   2.710121  -2.201444  -0.029641   9.218941   8.522376  -3.127393  16.886465  40.415206  -0.000324  40.880270   0.002118   4.671363   3.088635 -11.870120   1.500370   3.944289 -11.648912   2.968314   4.976639 -46.331094  -0.000549 -50.053401  -0.000959   1.984432  -5.915093  19.985379   1.907309 -11.068877  -1.063189  24.538019   0.002229  -0.004371 -14.153662  -2.955477  -0.816995  -0.107256  -0.000542  -0.004740 -34.734910   2.432353  10.711938  38.967849   0.012080   0.018463  -9.846019  10.314822  -3.554194  -2.558554  -0.001985  -0.003432
 -2.328065   0.902985   3.819139 -16.371489 -41.522743 -11.025320  29.834118   6.561159  -3.539909   4.905193   4.077554  -2.412916  -0.075090   2.778096  -2.257916  -0.065268   9.148555   8.526220  -3.156169  16.742902  40.429427  -0.000454  40.600748   0.002773   4.697878   3.119152 -12.006590   1.306872   3.850414 -11.707579   2.618228   5.027663 -46.148674  -0.001232 -50.191634  -0.002193   2.059225  -5.926389  20.174306   1.936148 -11.209230  -0.926509  24.249647   0.001952  -0.004797 -13.816148  -3.459459  -1.083385  -0.318382  -0.000577  -0.003771 -35.770399   2.781878  10.389223  40.130512   0.015350   0.022375 -10.144056  10.362056  -3.507625  -2.637590  -0.001790  -0.003378
 -2.327305   0.903490   3.815478 -16.284439 -40.944627 -10.802847  30.001880   6.651096  -3.663139   4.792662   4.030071  -2.404508  -0.056874   2.846186  -2.315660  -0.082289   9.075226   8.542402  -3.169852  16.596813  40.449356  -0.000611  40.327033   0.003373   4.710451   3.083492 -12.134586   1.102369   3.756651 -11.751777   2.268609   5.065646 -45.964215  -0.001803 -50.331290  -0.003234   2.144663  -5.988836  20.430587   1.972703 -11.344739  -0.814760  23.954618   0.001712  -0.005155 -13.522331  -3.958558  -1.284453  -0.460930  -0.000493  -0.003006 -36.734359   3.126929  10.055702  41.334725   0.018103   0.025265 -10.415433  10.407468  -3.464097  -2.700579  -0.001577  -0.003186
 -2.326595   0.903998   3.811918 -16.186886 -40.383845 -10.573894  30.150375   6.740738  -3.797337   4.681383   3.987073  -2.408850  -0.040761   2.910985  -2.373947  -0.092511   9.005836   8.561802  -3.178562  16.458827  40.472739  -0.000719  40.069392   0.003810   4.718211   3.027916 -12.240476   0.903938   3.665994 -11.785696   1.935184   5.096708 -45.786359  -0.002202 -50.465486  -0.003979   2.235207  -6.074127  20.704348   2.000799 -11.479459  -0.712555  23.655023   0.001522  -0.005417 -13.246293  -4.435208  -1.470915  -0.516530  -0.000404  -0.002404 -37.617828   3.461333   9.732777  42.489247   0.019875   0.026776 -10.667492  10.449748  -3.423284  -2.757885  -0.001382  -0.002965
 -2.325916   0.904487   3.808451 -16.078941 -39.842054 -10.344716  30.281852   6.826759  -3.934678   4.571269   3.947648  -2.421862  -0.026598   2.971815  -2.430980  -0.101286   8.941554   8.580176  -3.186188  16.330483  40.496005  -0.000763  39.829025   0.004080   4.724952   2.971357 -12.333793   0.716083   3.580035 -11.813728   1.621491   5.123536 -45.617886  -0.002446 -50.592324  -0.004453   2.326174  -6.166400  20.976563   2.015608 -11.613676  -0.615132  23.357767   0.001369  -0.005567 -12.982330  -4.889910  -1.644279  -0.523581  -0.000324  -0.001923 -38.424240   3.781952   9.429087  43.578714   0.020753   0.027210 -10.902411  10.489045  -3.384918  -2.810532  -0.001206  -0.002733
 -2.325254   0.904945   3.805074 -15.963107 -39.318733 -10.118932  30.399305   6.908176  -4.071633   4.463414   3.911358  -2.440996  -0.014007   3.028667  -2.485734  -0.110640   8.882225   8.595738  -3.194106  16.211480  40.517263  -0.000757  39.605349   0.004210   4.731812   2.919271 -12.422054   0.539955   3.499255 -11.838236   1.327961   5.147392 -45.459578  -0.002563 -50.711317  -0.004706   2.415273  -6.258560  21.240756   2.015528 -11.748660  -0.521743  23.068475   0.001244  -0.005602 -12.723684  -5.324889  -1.805443  -0.529221  -0.000259  -0.001539 -39.158085   4.087666   9.147768  44.602929   0.020915   0.026893 -11.121513  10.525601  -3.348824  -2.858852  -0.001046  -0.002501
 -2.324605   0.905366   3.801784 -15.841333 -38.812155  -9.898836  30.505261   6.984637  -4.205930   4.358832   3.877816  -2.464377  -0.002712   3.081716  -2.537747  -0.121149   8.827433   8.608141  -3.202680  16.101109  40.535812  -0.000718  39.397293   0.004234   4.739010   2.872543 -12.509019   0.375522   3.423637 -11.860640   1.053965   5.168954 -45.311445  -0.002585 -50.822501  -0.004789   2.501448  -6.347462  21.494767   2.001002 -11.884657  -0.431433  22.790558   0.001136  -0.005537 -12.471801  -5.741270  -1.954691  -0.533732  -0.000208  -0.001231 -39.824247   4.377896   8.889939  45.564604   0.020539   0.026086 -11.325875  10.559642  -3.314862  -2.903013  -0.000903  -0.002274
 -2.324078   0.905743   3.798851 -15.898729 -38.367950  -9.817714  30.650758   7.110378  -4.323916   4.320671   3.895160  -2.501287   0.057561   3.134861  -2.588413  -0.129099   8.770691   8.670514  -3.179727  15.961021  40.543727  -0.000790  39.136352   0.004410   4.773791   2.864377 -12.697967   0.190260   3.407035 -11.948643   0.685812   5.255954 -45.115628  -0.003471 -51.029967  -0.006299   2.574300  -6.386864  21.707104   2.146201 -11.953051  -0.324467  22.474985   0.001060  -0.005566 -12.132432  -6.178558  -2.167036  -1.061082  -0.000563  -0.000815 -40.368760   4.426689   8.668368  47.210790   0.020416   0.025279 -11.329895  10.517539  -3.248551  -2.877831  -0.000745  -0.001734
 -2.323531   0.906187   3.796081 -15.952545 -37.964084  -9.726625  30.771180   7.236626  -4.450919   4.286060   3.920974  -2.540141   0.115994   3.185656  -2.638822  -0.121146   8.713151   8.755525  -3.148006  15.823252  40.566176  -0.000910  38.884867   0.004459   4.799809   2.820805 -12.872073   0.011485   3.400386 -12.033640   0.334251   5.338807 -44.925629  -0.004124 -51.227179  -0.007358   2.649184  -6.448994  21.968626   2.286651 -11.988874  -0.237387  22.163157   0.000976  -0.005547 -11.904483  -6.565839  -2.350182  -0.996701  -0.000418  -0.000651 -40.807763   4.455644   8.458955  48.911768   0.019694   0.023959 -11.323039  10.478323  -3.186449  -2.830129  -0.000666  -0.001248
 -2.322911   0.906655   3.793413 -15.967650 -37.585324  -9.604551  30.860897   7.353643  -4.575089   4.242489   3.943951  -2.578177   0.168095   3.233219  -2.688256  -0.104100   8.655437   8.845684  -3.112410  15.692210  40.597369  -0.001021  38.648440   0.004393   4.821397   2.766342 -13.018920  -0.155464   3.396577 -12.110114   0.005426   5.416124 -44.746199  -0.004549 -51.412164  -0.007982   2.723783  -6.516424  22.236506   2.388293 -12.026453  -0.172929  21.845387   0.000900  -0.005484 -11.667637  -6.937211  -2.525953  -0.941483  -0.000304  -0.000524 -41.161779   4.488361   8.257592  50.549383   0.018566   0.022489 -11.314248  10.441859  -3.128485  -2.782874  -0.000614  -0.000870
 -2.322209   0.907123   3.790814 -15.942182 -37.219638  -9.457183  30.927146   7.459202  -4.687648   4.189959   3.961664  -2.611045   0.214108   3.277519  -2.735288  -0.083250   8.598323   8.933505  -3.075973  15.568191  40.630759  -0.001109  38.427145   0.004252   4.840687   2.709997 -13.148503  -0.311996   3.393050 -12.178569  -0.302290   5.487227 -44.577205  -0.004795 -51.585677  -0.008270   2.797226  -6.585119  22.498713   2.448384 -12.068903  -0.121804  21.529257   0.000827  -0.005384 -11.424492  -7.293341  -2.692439  -0.894341  -0.000218  -0.000421 -41.443681   4.525335   8.068330  52.100984   0.017221   0.021119 -11.305049  10.407824  -3.074410  -2.738118  -0.000574  -0.000576
 -2.321424   0.907576   3.788264 -15.879933 -36.861182  -9.290328  30.976389   7.553549  -4.786167   4.131093   3.974113  -2.636872   0.255063   3.318742  -2.779139  -0.061468   8.542554   9.016120  -3.040352  15.451144  40.663151  -0.001174  38.220317   0.004069   4.858452   2.654449 -13.268953  -0.459507   3.388733 -12.239619  -0.590791   5.552028 -44.417879  -0.004903 -51.748519  -0.008306   2.869491  -6.654491  22.752834   2.468896 -12.118414  -0.079763  21.219454   0.000755  -0.005251 -11.177471  -7.637446  -2.849144  -0.854042  -0.000153  -0.000339 -41.662938   4.565297   7.893963  53.564112   0.015787   0.019935 -11.295839  10.376081  -3.023950  -2.696034  -0.000542  -0.000348
